<svg xmlns="http://www.w3.org/2000/svg" viewBox="0 0 64 64" id="google-mail">
  <path fill="#ef3930" fill-rule="evenodd" d="m17,32.53v19.47c0,.27-.11.52-.29.71-.19.19-.44.29-.71.29-1.8,0-5.65-.02-8.52-.03-1.92,0-3.48-1.56-3.48-3.49V17.14c0-2.35,1.34-4.49,3.45-5.52,2.11-1.03,4.62-.76,6.47.69l18.08,14.18,16.2-12.71-1.2,18.75s-11.68,8.77-14.43,10.77c-.17.13-.37.19-.57.19s-.4-.06-.57-.19c-2.75-2.01-14.43-10.77-14.43-10.77h0Z"></path>
  <path fill="#0ba84a" fill-rule="evenodd" d="m47,51.97v-20.61c0-8.63,13-12.55,13-10.51v28.63c0,1.92-1.55,3.48-3.48,3.49-1.39,0-3.01,0-4.52,0-1.61,0-3.09,0-4.02-.01-.55,0-.99-.45-.99-.99h0Z"></path>
  <path fill="#f9b406" fill-rule="evenodd" d="m47,32.64V14.72l3.08-2.41c1.85-1.45,4.36-1.72,6.47-.69,2.11,1.03,3.45,3.17,3.45,5.52v5.88c-3.83,2.84-8.55,6.33-13,9.62h0Z"></path>
  <path fill="#1d83f2" fill-rule="evenodd" d="m17,51.97v-20.25c0-8.77-13-11.26-13-9.52v27.28c0,1.92,1.55,3.48,3.48,3.49,2.88.01,6.74,0,8.54,0,.55,0,.99-.45.99-.99h0Z"></path>
  <path fill="#c41a1a" fill-rule="evenodd" d="m17,32.64V14.72l-3.08-2.41c-1.85-1.45-4.36-1.72-6.47-.69-2.11,1.03-3.45,3.17-3.45,5.52v5.88c3.83,2.84,8.55,6.33,13,9.62h0Z"></path>
</svg>
